<?xml version="1.0" encoding="UTF-8"?>
<svg version="1.1" viewBox="0 0 1000 1000" width="1280" height="1280" xmlns="http://www.w3.org/2000/svg">
<path transform="translate(54,335)" d="m0 0h887v424l-3 1h-883l-2-1v-423zm10 10-1 1v351l1 1h866l1-1v-351l-1-1zm312 368-9 3-4 5-4 12v12l2 4 5 3 4 1h8l9-4 4-5 2-5h14l1-2h-15l1-5 2-1-1-2v-9h-2l-2-5-6-2zm362 0-7 3-5 6-3 9v15l4 5 6 2h7l9-3 6-7 1-4h15v-2h-14v-5l2-1-1-3v-8l-5-6-5-1zm101 0-7 3-6 7-2 6-1 14 3 7 8 3h7l6-2 2-6-2-4-12 1 3-16 3-2h9l2-2 2-6h14v-2l-18-1zm-724 1v1l14 1v-2zm17 0-1 1-6 36 2 1h20l13-1v-2h-7l-3 1 1-5h11v-2l-22-2 1-9 2-13v-5zm20 0v1l14 1 1-2zm17 0-3 14-3 23 2 1h8l2-1 3-18 1-1 1-10 1-4v-3l14 1 1-2zm29 0v25l2 12 1 1h15l5-10 4-9 4-10 3-7h13l1-2h-26l-5 11-4 9-1-20zm50 0-2 6-3 20-1 3v8l1 1h23l2-5-1-5h-12l1-4 10-1 2-6-2-3h-9l1-3 11-1 2-2 1-8zm41 0v1l6 1h8l1-2zm17 0-4 13-3 15-1 2v7l1 1h8l2-1 3-12 2 11 2 2h7l5-10v-3h2l-1 12 1 1h9l2-1 2-12v-7l2-1v-16l-1-1h-14l-6 14-1 1-1-2-1-13zm52 0v1h8v-1zm40 0v1l6 1h8l1-2zm17 0-2 7-3 19-1 3v8l1 1h9l3-9v-2h2l2 10 2 1h10l1-4-2-9 2-1 2-6h2l1-12-4-5-2-1zm31 0v1l14 1 1-2zm17 0-2 6-3 20-1 4v7l1 1h22l3-3v-6l-1-1h-12l1-4 10-1 2-3v-5l-1-1h-10l1-3 11-1 3-4v-6zm38 0v1l14 1 1-2zm17 0-2 8 1 2h7l-4 22v5l1 1h9l3-7 3-19 8-3 2-1v-7l6 1h8v-2zm45 0-1 1-3 19-3 17 3 1h7l2-1 3-12h7l-1 4v8l1 1h8l3-3 5-30v-5h-11l-3 12-7 1 1-13zm60 0-4 6-6 15-5 12 1 5h9l3-5 7-1 2 1 2 5h9l3-1-1-8-1-14-2-15zm26 0v1l5 1h8l1-2zm16 0-6 33v4l2 1h7l3-2 1-10h3l1 4 4 8h9l2-1 3-14 2-13v-10h-10l-3 12-7-12zm56 0v1h8v-1zm40 0v1l14 1 1-2zm17 0-4 19-3 18 2 1h8l3-3 1-8 3-1 1 5 4 7h9l2-2 2-11 2-2v-9l1-2v-12h-10l-2 5-1 6-3-3-4-8zm44 0v1h8v-1zm49 0-1 1-3 19-3 17 2 1h22l2-1 1-8-1-1-11-1v-3l10-1 2-4v-4l-2-1h-9l1-3 11-1 3-5v-5zm-754 6 1 2h10v-2zm37 0 2 2h10v-2zm30 0 1 2h10l1-2zm48 0 2 2h10v-2zm58 0 1 2h11v-2zm62 0 2 2h7v-2zm47 0 2 2h10v-2zm49 0 1 2h10l1-2zm54 0 2 2h10v-2zm46 0 1 2h11v-2zm58 0 1 2h10v-2zm44 0 2 2h10v-2zm65 0 2 2h8v-2zm48 0 1 2h10v-2zm53 0 2 2h7v-2zm40 0 1 2h11v-2zm-737 6-1 2h9v-2zm38 0v2h7v-2zm31 0-1 2h9l-1-2zm46 0v2h10v-2zm58 0-1 2h9v-2zm61 0-1 2h7v-2zm48 0v2h10l-1-2zm49 0-1 2h11l-2-2zm63 0v2h9v-2zm37 0v2h8v-2zm56 0-1 2h10l-1-2zm46 0v2h9l-1-2zm64 0v2h7l-1-2zm50 0-1 2h8v-2zm51 0v2h6v-2zm42 0-1 2h8v-2zm-745 5v1l9 1 3 1v-3zm40 0v1h7v2h3l-1-3zm34 0m3 0 3 1 1 2v-3zm40 0v1l7 1 3 1v-3zm56 0v1l8 1 3 1v-3zm62 0v1h7v-1zm50 0v1l10 2v-3zm48 0v1l10 2v-3zm64 0v1l9 2-1-3zm39 0m4 0m48 0v1l10 2v-3zm47 0v1l7 1 2 1v-3zm63 0v1l8 1 1-2zm51 0m4 0 4 3v-3zm45 0m3 0v1l6 1v-2zm44 0 4 3h2l-1-3zm-748 6v1l13 1 1-2zm38 0v1l13 1v-2zm34 0v1l12 1 1-2zm45 0v1l13 1v-2zm57 0v1l13 1v-2zm60 0v1l11 1 1-2zm97 0v1l13 1 1-2zm64 0v1l14 1v-2zm38 0v1l11 1 1-2zm54 0v1l12 1v-2zm47 0v1l13 1v-2zm63 0v1l11 1 1-2zm101 0v1l10 1 2-2zm42 0v1l12 1 1-2zm-739 6 2 2h10v-2zm75 0 1 2h8v-2zm42 0 1 2h10v-2zm56 0 1 2h10v-2zm64 0 1 2h7v-2zm47 0 1 2h10v-2zm48 0 1 2h10v-2zm63 0 1 2h10v-2zm37 0 1 2h10v-2zm53 0 2 2h9v-2zm49 0 2 2h10v-2zm66 0 1 2h8v-2zm48 0 1 2h9v-2zm53 0 1 2h7v-2zm39 0 1 2h10v-2zm-736 6-2 2h9l-1-2zm75 0-2 2h8v-2zm41 0-1 2h8v-2zm55 0-1 2h9l-1-2zm112 0-1 2h8l-1-2zm49 0-2 2h9l-2-2zm62 0-1 2h9l-1-2zm36 0-1 2h9l-1-2zm52 0-1 2h7v-2zm52 0-2 2h8v-2zm112 0-1 2h8v-2zm94 0-2 2h8l-1-2z" fill="#174D39"/>
<path transform="translate(106,392)" d="m0 0h66l18 3 18 5 15 8 12 11 5 6 6 13 2 8v28l-4 13-6 10-12 12-13 8-6 3 1 7 12 34 3 7 7 20 11 30 9 24 1 7-113 1-3-1v-10l1-1h99l-5-15-6-17-15-41-9-24-7-20-1-6 11-6 14-8 10-9 5-8 4-13 1-6v-9l-3-15-7-14-10-9-14-7-12-4-11-2-14-1-49-1-1 246h-10z" fill="#255B48"/>
<path transform="translate(794,432)" d="m0 0h18l15 2 17 5 12 7 10 9 8 11 6 13 5 19 2 12 1 17v32l-1 17-5 24-6 15-8 13-5 6-11 8-10 5-9 3-15 3h-31l-13-2-14-5-11-6-10-9-7-9-7-15-4-13-4-24v-55l4-24 7-20 6-11 9-10 11-8 15-6 12-3zm0 11-16 2-7 2-10 4-10 7-7 7-6 10-4 10-4 17-2 16v51l4 25 6 17 8 11 8 8 10 6 12 4 13 2h27l16-3 13-5 11-9 1-3h2l7-11 6-15 4-20 1-13v-39l-1-14-2-13-5-16-7-14-8-9-10-7-12-5-10-2-11-1z" fill="#265D4A"/>
<path transform="translate(374,432)" d="m0 0h20l15 2 14 4 12 6 9 7 8 8 4 8-5 5-14 12-17 14-13 11-11 9-14 12-15 12-13 1-3-1v-2h2v-2l9-7 12-10h2v-2l10-8 14-12 16-13 11-9 9-8 4-3-1-4-8-7-12-6-16-4-12-1h-14l-13 1-16 4-13 8-3 1v2l-5 5-6 9-5 12-4 17-2 16v48l2 16 5 19 8 16 8 9 12 8 12 4 13 2h29l15-3 13-5 11-8 3-4 4 1v2h2v2h2l-1 5-10 9-16 8-10 3-12 2h-32l-20-4-16-8-9-7v-2h-2l-10-14-6-15-5-22-2-18v-43l3-22 4-16 5-12 7-12 10-10 11-7 16-6 9-2z" fill="#265D4A"/>
<path transform="translate(576,388)" d="m0 0h26l15 2 16 5 10 6 10 9 9 11 8 16-1 3-6 3-4-2-8-16-7-8-10-8-8-4-15-4-13-1h-20l-13 2-11 3-14 9-7 7-8 13-6 17-4 24v91l2 15 4 16 7 16 7 9 7 7 10 6 16 5 7 1h29l16-3 13-5 11-9 8-10 8-15 3-1 6 3 1 4-8 15-9 11-7 7-11 7-9 4-15 3-7 1h-30l-15-3-14-5-13-9-10-11-8-14-4-10-4-15-3-22-1-17v-55l2-24 4-21 6-17 6-11 8-10 8-7 9-6 18-6z" fill="#285E4B"/>
<path transform="translate(109,713)" d="m0 0h102l1 16 3-7 3-8 1-1h54l1 5-3 6-1 1h-11v3h-2l1-4 11-1 3-9h-24l-2 14-3 15v8h23l1-8-12-1 1-5 10-1 1-5-1-3h3v8l-2 3 3 4-1 8-2 2-10 1-31-2-6-2-3 3h-17l-16-1-4-2v-2l9-1-12-2 1 4h-2l-1 4-6 1-7-1h-14l-1 1-40-2-5-4 1-1 7-1-7-1v-2l2-1 11-1-1-1-12-1-1-2 3-1 12-1-14-3 1-2 10-1-10-3v-2l10-1-7-2v-1l5-1h17l1-1h-7l-15-2-2-2zm6 1v1l14 1v-2zm17 0-1 1-6 36 2 1h20l13-1v-2h-7l-3 1 1-5h11v-2l-22-2 1-9 2-13v-5zm20 0v1l14 1 1-2zm17 0-3 14-3 23 2 1h8l2-1 3-18 1-1 1-10 1-4v-3l14 1 1-2zm29 0v25l2 12 1 1h15l5-10 4-9 4-10 3-7h13l1-2h-26l-5 11-4 9-1-20zm-81 6 1 2h10v-2zm37 0 2 2h10v-2zm30 0 1 2h10l1-2zm48 0 2 2h10v-2zm-113 6-1 2h9v-2zm38 0v2h7v-2zm31 0-1 2h9l-1-2zm46 0v2h10v-2zm-120 5v1l9 1 3 1v-3zm40 0v1h7v2h3l-1-3zm34 0m3 0 3 1 1 2v-3zm40 0v1l7 1 3 1v-3zm-120 6v1l13 1 1-2zm38 0v1l13 1v-2zm34 0v1l12 1 1-2zm45 0v1l13 1v-2zm-116 6 2 2h10v-2zm75 0 1 2h8v-2zm42 0 1 2h10v-2zm-113 6-2 2h9l-1-2zm75 0-2 2h8v-2zm41 0-1 2h8v-2z" fill="#568F7F"/>
<path transform="translate(63,343)" d="m0 0 867 1v1l-866 1v351h866l1-351h1v352l-1 1h-869l-1-2v-352z" fill="#4D8877"/>
<path transform="translate(283,713)" d="m0 0h39l1 11 2 1 1-5 3-7h17l1 4 1 2h15l1-2-14-1-1-2 3-1h24v1l-9 2-5 10-2 7v12l1 4 9 3h8l9-4 4-7 2-3h14l-14-1 1-5v-3l1-9h-2l-2-4-6-2v-1h104l-1 7h-1v-6l-24 1-4 25-1 4v7h24l1-2-1 4-7 1-18-1h-18l-6 1-7-1-3-7-2 6-1 1h-12l-14-1-7-1-7 3h-13l-4-2h-12l-3-2v-2h6v-2h-8l-3-1v6l-2 2h-12l-3-3-2 1 4-12h2v12h11l2-19 1-1v-16l-14-1-3 9-4 9h-1l-1-5v-13h-15l-2 10-3 11h-12l-2-1-9-1v-3l8-1-8-3 1-2 9-1-6-1v-2l3-1h18l1-1-22-2-1-2zm6 1v1l6 1h8l1-2zm69 0v1h8v-1zm40 0v1l6 1h8l1-2zm17 0-2 7-3 19-1 3v8l1 1h9l3-9v-2h2l2 10 2 1h10l1-4-2-9 2-1 2-6h2l1-12-4-5-2-1zm31 0v1l14 1 1-2zm-156 6 1 2h11v-2zm62 0 2 2h7v-2zm47 0 2 2h10v-2zm49 0 1 2h10l1-2zm-156 6-1 2h9v-2zm61 0-1 2h7v-2zm48 0v2h10l-1-2zm49 0-1 2h11l-2-2zm-163 5v1l8 1 3 1v-3zm62 0v1h7v-1zm50 0v1l10 2v-3zm48 0v1l10 2v-3zm-102 6v1l11 1 1-2zm97 0v1l13 1 1-2zm-93 6 1 2h7v-2zm47 0 1 2h10v-2zm48 0 1 2h10v-2zm-45 6-1 2h8l-1-2zm49 0-2 2h9l-2-2z" fill="#548E7E"/>
<path transform="translate(816,713)" d="m0 0h23l-4 2-6 5-4 9-1 14 2 7 8 2h7l6-2 1-7-3-1h-10l2-16 4-3h9l4-8 14 1v-2h-18v-1h46l1 3-3 8-1 1h-12v-1l11-1 3-9-24 1-3 19-3 15-1 2h26v-8l-11-1-1-4 1-1 10-1 2-3-1 5v2l2 2v7l-2 4-2 1h-12l-12-1h-17l-2 1h-14l-4-2h-11l-3-1v-3l4-1-11-2-1 7-2 1h-11l-2-2 1-3 2 3h9l2-5 1-7 2-2v-9l2-9h18l1-2-13-1-1-2zm6 1v1h8v-1zm-6 6 2 2h7v-2zm40 0 1 2h11v-2zm-39 6v2h6v-2zm42 0-1 2h8v-2zm-47 5m3 0v1l6 1v-2zm44 0 4 3h2l-1-3zm-50 6v1l10 1 2-2zm42 0v1l12 1 1-2zm-38 6 1 2h7v-2zm39 0 1 2h10v-2zm4 6-2 2h8l-1-2z" fill="#558E7E"/>
<path transform="translate(621,713)" d="m0 0h56l3 4-1 4-3-6-11-1-1 10-5 27h9l2-1 2-10h3l-3 11-2 2h-39l-3-5h-6l-3 5h-12l-17-1-3 1h-10l-2-4 1-10h2v12h10l2-13 3-19h1v5l11-1-7-1-1-2 5-1h16zm2 1-4 6-6 15-5 12 1 5h9l3-5 7-1 2 1 2 5h9l3-1-1-8-1-14-2-15zm26 0v1l5 1h8l1-2zm-43 6 1 2h10v-2zm44 0 2 2h10v-2zm-44 6-1 2h10l-1-2zm46 0v2h9l-1-2zm-50 5v1l10 2v-3zm47 0v1l7 1 2 1v-3zm-51 6v1l12 1v-2zm47 0v1l13 1v-2zm-48 6 2 2h9v-2zm49 0 2 2h10v-2zm-48 6-1 2h7v-2zm52 0-2 2h8v-2z" fill="#588F80"/>
<path transform="translate(496,713)" d="m0 0h79v9l-1 4 5-1 2-11 1-1h13l1 4-2 2v-5h-11l-2 12-5 2-3-1v-9l1-4-11 1-3 19-3 15-1 2h12l1-3-1 5h-16l-12-1-3-3 6-2-1-1-7-1-2 6-2 2h-11l-17-1-4-1-1-3 1-1 7-1-7-1-1-2 2-1 11-1-1-1-11-1-1-2 2-1h22l-1 15h9l2-6 3-19 2-2 9-2-1-5 1-2 14 1v-2h-42l-1 10h7l-1 9-1 2h-10l-12-2-2-2 1-1 9-1-8-3v-2l2-1-7-1v-2l15-2-15-2-1-2zm5 1v1l14 1 1-2zm1 6 2 2h10v-2zm46 0 1 2h11v-2zm-35 6v2h9v-2zm37 0v2h8v-2zm-39 5v1l9 2-1-3zm39 0m4 0m-48 6v1l14 1v-2zm38 0v1l11 1 1-2zm-37 6 1 2h10v-2zm37 0 1 2h10v-2zm-34 6-1 2h9l-1-2zm36 0-1 2h9l-1-2z" fill="#568F7F"/>
<path transform="translate(54,335)" d="m0 0h887v424h-1v-423l-878 1-2 1 4 2-5 5-4-1-2-5z" fill="#4C8776"/>
<path transform="translate(283,713)" d="m0 0h39l1 11 2 1 1-5 3-7h17l1 4 1 2h15l1-2-14-1-1-2 3-1h24v1l-9 2-5 10-2 7v12l1 4 9 3h8l9-3v2l-7 3h-13l-4-2h-12l-3-2v-2h6v-2h-8l-3-1v6l-2 2h-12l-3-3-2 1 4-12h2v12h11l2-19 1-1v-16l-14-1-3 9-4 9h-1l-1-5v-13h-15l-2 10-3 11h-12l-2-1-9-1v-3l8-1-8-3 1-2 9-1-6-1v-2l3-1h18l1-1-22-2-1-2zm6 1v1l6 1h8l1-2zm69 0v1h8v-1zm-68 6 1 2h11v-2zm62 0 2 2h7v-2zm-60 6-1 2h9v-2zm61 0-1 2h7v-2zm-66 5v1l8 1 3 1v-3zm62 0v1h7v-1zm-4 6v1l11 1 1-2zm4 6 1 2h7v-2zm8 7m35-11 1 3h14v1l-10 1v1l-7 2-2 1 2-4z" fill="#5B9182"/>
<path transform="translate(748,713)" d="m0 0h42l1 4-2-2-11-1-1 8-5 27-1 2h12l1-10 2-2 2 1v3l-2 1-1 7-2 2h-15l-18-2v-3l4-5 2-5h10l5 1v-2h-14v-5-4-8l-4-5-5-1zm13 1v1l14 1 1-2zm2 6 1 2h10v-2zm3 6-1 2h8v-2zm-3 5m4 0 4 3v-3zm-7 12 1 2h9v-2zm2 6-1 2h8v-2z" fill="#578C7D"/>
<path transform="translate(816,713)" d="m0 0h23l-4 2-6 5-4 9-1 14 2 7 8 2h7l6-2 1-7-3-1h-10l1-10h1v8h12l4 5h-2l-1 3h6v2l-11 4h-14l-4-2h-11l-3-1v-3l4-1-11-2-1 7-2 1h-11l-2-2 1-3 2 3h9l2-5 1-7 2-2v-9l2-9h18l1-2-13-1-1-2zm6 1v1h8v-1zm-6 6 2 2h7v-2zm1 6v2h6v-2zm-5 5m3 0v1l6 1v-2zm-6 6v1l10 1 2-2zm4 6 1 2h7v-2z" fill="#4D8474"/>
<path transform="translate(443,716)" d="m0 0h7l11 2v10l-3 16v7h24l1-2-1 4-7 1-18-1h-18l-6 1-7-1v-2h12l-2-12 3-1 1-4 1-2h2zm5 4 1 2h10l1-2zm2 6-1 2h11l-2-2zm-3 5v1l10 2v-3zm-5 6v1l13 1 1-2zm2 6 1 2h10v-2zm4 6-2 2h9l-2-2z" fill="#457E6D"/>
<path transform="translate(621,713)" d="m0 0h56l3 4-1 4-3-6h-22l7 2 1 2-19 1-3-1v-5l-17 1-6 12-5 13-1 2h-20l-1-4 3-19h1v5l11-1-7-1-1-2 5-1h16zm-15 7 1 2h10v-2zm0 6-1 2h10l-1-2zm-4 5v1l10 2v-3zm-4 6v1l12 1v-2z" fill="#599182"/>
<path transform="translate(144,715)" d="m0 0 17 2 7 1v1l-17 1-5 1 20 1 1-2 1 5-1 5-2 11-3 2h-13l-9-1-1-1 1-9 2-11zm13 11v2h7v-2zm-3 5v1h7v2h3l-1-3zm-5 6v1l13 1v-2z" fill="#568F7F"/>
<path transform="translate(197,715)" d="m0 0h1l1 24 1 11-3 1v-2l-10 2 2-4-12-2 1 4h-2l-1 2v-7l2-11 1-1 1-10 2-2 4 1h12zm-9 11-1 2h9l-1-2zm0 5m3 0 3 1 1 2v-3zm-8 6v1l12 1 1-2zm4 6 1 2h8v-2z" fill="#5C9485"/>
<path transform="translate(552,731)" d="m0 0h5l2 2-2 16-1 2h12l1-3-1 5h-16l-12-1-3-3 6-2-1-1-7-1-2 6-2 2h-11l-17-1-4-1-1-3 1-1 7-1-7-1-1-2 2-1 11-1-1-1-11-1-1-2 2-1h22l-1 15h9l3-11 2-1v4l13-2-1-3h8v-2h2v-2l-7-1zm-46 6v1l14 1v-2zm1 6 1 2h10v-2zm37 0 1 2h10v-2zm-34 6-1 2h9l-1-2zm36 0-1 2h9l-1-2z" fill="#538C7C"/>
<path transform="translate(283,713)" d="m0 0h39l1 11 2 1 1-5 3-7h17l1 4-2 2-1-4-14-1-3 9-4 9h-1l-1-5v-13h-15l-2 10-3 11h-12l-2-1-9-1v-3l8-1-8-3 1-2 9-1-6-1v-2l3-1h18l1-1-22-2-1-2zm6 1v1l6 1h8l1-2zm1 6 1 2h11v-2zm2 6-1 2h9v-2zm-5 5v1l8 1 3 1v-3z" fill="#518B7B"/>
<path transform="translate(546,721)" d="m0 0 15 1-1 12-3-2-7-1v2l7 1v2l-10 2 1 2 8 1v1l-21 1-2-5 2-12 2-2 7-2zm4 5v2h8v-2z" fill="#5A9283"/>
<path transform="translate(219,713)" d="m0 0h54l1 5-3 6-1 1h-11v3h-2l1-4 11-1 3-9h-24l-2 14-2 10h-2v-2h-18l2-3 7 1 8 1v-4h-12l-2-5 4-10 1-1h-12l-5 13h-1v-5zm13 7 2 2h10v-2zm2 6v2h10v-2z" fill="#47806F"/>
<path transform="translate(757,732)" d="m0 0h8l7 1 2 1-1 11-2 6h12l1-10 2-2 2 1v3l-2 1-1 7-2 2h-15l-18-2v-3l4-5 2-5h10l5 1v-2h-14zm3 11 1 2h9v-2zm2 6-1 2h8v-2z" fill="#498171"/>
<path transform="translate(109,713)" d="m0 0h102l1 16 2-1-2 8-2-2v-20l-12 1-1 6-16-1-1-2 1-3h14l-26-1v6l-2 1h-11v1h-10l-1-2 16-2-15-2-2-1v5l-2 1 1-7-11 1h-3-7v1h-14l-2-2zm43 1v1l14 1 1-2z" fill="#5A9282"/>
<path transform="translate(125,739)" d="m0 0 2 1-1 9-1 2h35v-2l-10 1-1-4 3-2 10 1v-3h2l-1 9h12v2l-6 1-7-1h-14l-1 1-40-2-5-4 1-1 7-1-7-1v-2l2-1h11l-2 2 10 1v-2h-7l1-2zm-9 10-2 2h9l-1-2z" fill="#518A7A"/>
<path transform="translate(702,730)" d="m0 0h22v16l3 4 6 2h7l9-2-1 2-4 2h-13l-7-2h-9l-5-2-1-2 7-1-14-2 1-3 11-1-2-1-10-1-2-2 13-2-12-3zm10 1v1l8 1 1-2zm-4 6v1l11 1 1-2zm4 6 1 2h8v-2z" fill="#568F7F"/>
<path transform="translate(407,728)" d="m0 0 5 1-1 11-1 3v8h9l3-10h2l2 5v5l-2-3-1-2-2 6-1 1h-12l-14-1-7-2 4-5h16v-3h-14v-4h14l-13-1 2-4 4 1h9v-3l-4-1h2zm-8 21-1 2h8l-1-2z" fill="#589081"/>
<path transform="translate(836,732)" d="m0 0h1v8h12l4 5h-2l-1 3h6v2l-11 4h-14l-4-2h-11l-3-1v-3l4-1-11-2-1 7-2 1h-11l-2-2 1-3 2 3h9l2-5 1-7 3-1-1 4 8-1-2-1v-2h9l1-3 1 3 1 9 1 3 8 2h7l6-2 1-7-3-1h-10zm-23 11 1 2h7v-2z" fill="#619889"/>
<path transform="translate(278,736)" d="m0 0h23l-2 8v7h10l2-12 2-1 2 12 1 1h8v2l-8 1-3-2v-5h-2l-1 5-1 1h-13l-16-1-4-4 6-2-6-2 2-2 12-1-2-1-10-1-2-2zm7 1v1l13 1v-2zm0 6 1 2h10v-2zm2 6-1 2h9l-1-2z" fill="#558E7E"/>
<path transform="translate(662,715)" d="m0 0h3l-1 9-2 9-2-1-18-1-1-2v-10l20-1-1-2zm-12 5 2 2h10v-2zm2 6v2h9l-1-2z" fill="#447C6B"/>
<path transform="translate(141,726)" d="m0 0 1 4h19v1l-9 1v2l12 1-1 2-6 1h7v4l-2 1h-13l-9-1-1-1 1-9z" fill="#599182"/>
<path transform="translate(443,716)" d="m0 0h7l11 2v10l-2 10-3-1-15-1 2-3 12 1h2v-4h-13l-1-1zm5 4 1 2h10l1-2zm2 6-1 2h11l-2-2z" fill="#599080"/>
<path transform="translate(552,731)" d="m0 0h5l2 2-2 16-1 2h12l1-3-1 5h-16l-12-1-3-3 6-2-1-1-7-1-2 4-1-4 2-6 1 4 13-2-1-3h8v-2h2v-2l-7-1zm-8 12 1 2h10v-2zm2 6-1 2h9l-1-2z" fill="#548D7D"/>
<path transform="translate(838,725)" d="m0 0 10 1 6 2 13 1-1 2h-20l7 2 12 2v1l-18 1-2 1 10 1 1 1 9 1v1h-15l-1-1-12-1v-14z" fill="#184E3A"/>
<path transform="translate(413,714)" d="m0 0 2 2-2 12-2 1-1-2-9-1v2h6v2l-2 2 2 3h-7l-4-1-3 3 1-5v-3l1-9h-2l-1-3 3 1 17 1-1-1zm-14 6 2 2h10v-2z" fill="#3F7766"/>
<path transform="translate(518,713)" d="m0 0h57v9l-1 4 5-1 2-11 1-1h13l1 4-2 2v-5h-11l-2 12-5 2-3-1v-9l1-4-11 1-1 8-2-1v-2l-11 1h-3l-1-4 1-2 14 1v-2h-42z" fill="#568F7F"/>
<path transform="translate(890,733)" d="m0 0 1 4-2 2 3 3v7l-2 4-2 1h-12l-24-2v-1l9-1-11-2 1-4 12 1v-2h-12v-1l12-1 1-2h2l-1 10-1 2h26v-8l-11-1-1-4 1-1 10-1z" fill="#518B7B"/>
<path transform="translate(716,713)" d="m0 0h22l-4 2-5 4-5 10h-13l-9-3v-2l13-1-8-1-1-2 4-1h16l1-2-12-1-2-2zm5 1v1h8v-1zm-6 6 2 2h8v-2zm1 6v2h7l-1-2z" fill="#609788"/>
<path transform="translate(196,723)" d="m0 0 2 1v19h-20v-4h12l5-1v-1l-17-1 2-4h8l7 2-1-3-14-1v-2h16z" fill="#417A68"/>
<path transform="translate(219,713)" d="m0 0h54l1 5-3 6-1 1h-11v3h-2l1-4 11-1 3-9h-24l-1 6-2 2-1-3h-12v-4h-12l-5 13h-1v-5z" fill="#4F8777"/>
<path transform="translate(621,713)" d="m0 0h56l3 4-1 4-3-6h-22l7 2 1 2-19 1-3-1v-5l-17 1-4 6-2-1z" fill="#589080"/>
<path transform="translate(546,721)" d="m0 0 15 1-1 12-3-2v-2h-21l2-5zm4 5v2h8v-2z" fill="#508979"/>
<path transform="translate(128,726)" d="m0 0h1v8l-2 6-10 2-2-2-12-1-1-2 3-1 12-1-14-3 1-2h24l-1-3zm-14 5v1l9 1 3 1v-3zm-3 6v1l13 1 1-2z" fill="#689D90"/>
<path transform="translate(738,724)" d="m0 0h8l-1 8-2 9-1 1h-8l1-9 1-7z" fill="#154B37"/>
<path transform="translate(374,724)" d="m0 0h8l1 2-2 12-1 3-2 1h-6l-1-4z" fill="#316856"/>
<path transform="translate(167,713)" d="m0 0h44l1 16 2-1-2 8-2-2v-20l-12 1-1 6-16-1-1-2 1-3h-14z" fill="#518B7B"/>
<path transform="translate(283,713)" d="m0 0h39l1 11 2 1 1-5 3-7h17l1 4-2 2-1-4-14-1-3 9-4 9h-1l-1-5v-13l-16 1h-10l8 1-1 2-20-2-1-2z" fill="#538D7D"/>
<path transform="translate(846,730)" d="m0 0h22l-1 7-4 4h-7l-1-1-10-1-2-2 14-2-13-3zm13 1 4 3h2l-1-3zm-8 6v1l12 1 1-2z" fill="#5A9283"/>
<path transform="translate(592,733)" d="m0 0h8l12 2-1 7h-20l-1-4zm6 4v1l12 1v-2z" fill="#609788"/>
<path transform="translate(345,728)" d="m0 0 13 1-1 2-7 1 8 3-1 2-8 1 2 1v2h7v1h-16l1-10h2z" fill="#3E7665"/>
<path transform="translate(702,730)" d="m0 0h22l-1 13-1-4-6-1v1h-14l-2-2 13-2-12-3zm10 1v1l8 1 1-2z" fill="#5D9485"/>
<path transform="translate(836,732)" d="m0 0h1v8h12l4 5h-2l-1 3h6v2l-11 4h-14l-8-3-4-1 4-2h3v2l8 2h7l6-2 1-7-3-1h-10z" fill="#679C8E"/>
<path transform="translate(223,739)" d="m0 0h15l3 3-2 1-9 1v1l5 1-3 2h-11l-2-4 2-3h2z" fill="#5F9687"/>
<path transform="translate(443,729)" d="m0 0 14 1-4 2 2 1v2l-12-1-1 1 14 1 3 2-1 6-1-3h-8l-2-1-10-1 2-1 1-4 1-2h2zm-1 8v1l13 1 1-2z" fill="#5D9586"/>
<path transform="translate(821,730)" d="m0 0h3v5l-3 3h-8v2l8 1v1h-14v-9l4-1h9z" fill="#477E6E"/>
<path transform="translate(227,728)" d="m0 0 4 3 7 1 3 3h-8l-7-1-1 1 17 1v2h2l-2 7-3-3-1-3h3v-2l-6 1v1h-12v2h-2l2-7 2-4z" fill="#699E91"/>
<path transform="translate(593,719)" d="m0 0h1v5h19l-2 2-5 1 8 1-1 3-20-1z" fill="#538D7C"/>
<path transform="translate(197,715)" d="m0 0h1v9l-3 3h-7l-2 2-7-1v-6l2-2 4 1h12z" fill="#5C9284"/>
<path transform="translate(439,713)" d="m0 0h50l-1 7h-1v-6l-24 1-1 5-1-2-11-1-7-1-1 3-3-4zm7 1v1l14 1 1-2z" fill="#5A9283"/>
<path transform="translate(162,742)" d="m0 0h2l-1 9h12v2l-6 1-22-2v-1h13v-2l-10 1-1-4 3-2 10 1z" fill="#568E7E"/>
<path transform="translate(685,713)" d="m0 0h13l1 3-1 2-4 26-2 8-2 1h-11l1-2h11l3-23 2-14h-10l-2 12-2 1 1-10z" fill="#5B9383"/>
<path transform="translate(266,728)" d="m0 0h3v8l-2 3 3 4-1 8-2 2-10 1v-2l9-1 1-8-12-1 1-5 10-1 1-5z" fill="#568F7F"/>
<path transform="translate(437,742)" d="m0 0h18v1l-10 1v2l-6-1 1 2 8 1v2l7 1v1l-16 1-6 1-7-1v-2h12z" fill="#589181"/>
<path transform="translate(304,714)" d="m0 0 2 2-3 11-3 1v-2h-6v-2l-12-2v-2l3-1h18l-1-1zm-14 6 1 2h11v-2z" fill="#62988A"/>
<path transform="translate(413,714)" d="m0 0 2 2-2 12-2 1-1-2-6-1v-2l-9-2v-2h-2l-1-3 3 1 17 1-1-1zm-14 6 2 2h10v-2z" fill="#62988A"/>
<path transform="translate(715,722)" d="m0 0h10v6l-1 1h-13l-9-3v-2l13-1zm1 4v2h7l-1-2z" fill="#579080"/>
<path transform="translate(179,728)" d="m0 0 1 2h14v4l-6-1h-8l-1 2 16 1-5 4-12-1-1 4-1-2 1-8z" fill="#6CA093"/>
<path transform="translate(144,715)" d="m0 0 17 2 7 1v1l-17 1-5 1 14 2v1h-16z" fill="#154B37"/>
<path transform="translate(748,713)" d="m0 0h28v1l-8 1v1h-11l1 2 15 1v1l-9 1 5 1v1h-11l-4-7-6-2z" fill="#5D9586"/>
<path transform="translate(776,713)" d="m0 0h14l1 4-2-2-11-1-1 6-19-1-1-3 18-1z" fill="#568F7F"/>
<path transform="translate(864,739)" d="m0 0h2l-1 10-2 2-13-3 1-4 12 1v-2h-12v-1l12-1z" fill="#4A8271"/>
<path transform="translate(278,736)" d="m0 0h23l-2 8-3 1 1-3-9-2-10-1-2-2zm7 1v1l13 1v-2z" fill="#5F9687"/>
<path transform="translate(181,715)" d="m0 0h16v6l-16-1-1-2z" fill="#427A69"/>
<path transform="translate(757,732)" d="m0 0h8l7 1 2 1v3h-2l-1 2v-2h-14z" fill="#3E7665"/>
<path transform="translate(602,719)" d="m0 0h15v1l-10 1h12l-3 10-2-1v-3l-3-2 2-1-15-2-1-2z" fill="#5E9586"/>
<path transform="translate(816,713)" d="m0 0h23l-4 2-6 5-3 3-1-3 3-3-13-1-1-2zm6 1v1h8v-1z" fill="#72A599"/>
<path transform="translate(772,737)" d="m0 0h2l-1 3zm-16 1h10l6 1-1 2h-7l-7-2v2l12 1v1l-8 1-1 2h-7l2-7z" fill="#5D9586"/>
<path transform="translate(244,727)" d="m0 0 1 4-1 7h-2v-2h-18l2-3 7 1 8 1v-4h-12v-1l13-1z" fill="#568F7F"/>
<path transform="translate(738,724)" d="m0 0h8l-1 8h-1v-7l-5 1-2 9-1 5h6l1-7h1v6l-2 3h-8l1-9 1-7z" fill="#5D9485"/>
<path transform="translate(407,728)" d="m0 0 5 1-1 9-17-1 2-4 4 1h9v-3l-4-1h2z" fill="#3D7664"/>
<path transform="translate(552,731)" d="m0 0h5l2 2-1 12h-3v-3l-7-1-1-3h8v-2h2v-2l-7-1z" fill="#73A699"/>
<path transform="translate(140,739)" d="m0 0h13l2 1 9 1-2 2h-13l-9-1z" fill="#4F8A79"/>
<path transform="translate(500,736)" d="m0 0h22l-1 8-3 1-1-6h3v-2l-7 1v1h-14l-1-2z" fill="#609788"/>
<path transform="translate(391,745)" d="m0 0 11 1-5 4 9 1v1h-12l-7-2z" fill="#38715F"/>
<path transform="translate(482,734)" d="m0 0 1 4v2l2 2-1 5-2-4-12-1 1-5 10-1z" fill="#518B7B"/>
<path transform="translate(662,715)" d="m0 0h3l-1 9-2-4-10 1v1h-11v-3l20-1-1-2z" fill="#5E9687"/>
<path transform="translate(811,744)" d="m0 0h13l1 4-5 2 4 2h-8l-3-1v-3l4-1-6-1z" fill="#4C8776"/>
<path transform="translate(590,745)" d="m0 0h18l-1 5-17-2z" fill="#4D8877"/>
<path transform="translate(328,739)" d="m0 0h2v12h11l1-3 1 3-2 2h-12l-3-3-2 1 3-9z" fill="#508979"/>
<path transform="translate(624,745)" d="m0 0 6 1 1 4-3-2h-6l-3 5h-12l-11-1v-1h8l1-2h3l1 2h9l3-5z" fill="#679C8E"/>
<path transform="translate(644,738)" d="m0 0h9l5 1-2 1 1 3h-12z" fill="#437968"/>
<path transform="translate(444,729)" d="m0 0h15v9l-3-1-15-1 2-3 12 1h2v-4h-13z" fill="#316957"/>
<path transform="translate(180,748)" d="m0 0h8v2h12l1 1 14 1v1h-15l-16-1-4-2z" fill="#4D8877"/>
<path transform="translate(198,739)" d="m0 0h1l1 11-3 1v-2l-10 2 2-4h3v-2h4v-2h2z" fill="#6DA194"/>
<path transform="translate(642,731)" d="m0 0 14 1 1 1 1-2 4 2-1 8h-1v-6h-9l-9-2z" fill="#7CADA1"/>
<path transform="translate(702,730)" d="m0 0h19v1l-7 1 6 2v1h-7l-12-3z" fill="#589181"/>
<path transform="translate(798,713)" d="m0 0h12l2 1-1 4h-2v-4h-10l-3 13-4-5-1-5 2 1 2 4 2-8z" fill="#5E9586"/>
<path transform="translate(592,739)" d="m0 0m-1 1m-2 1 21 1-1 5-1-4-9 1 3 2-13-1z" fill="#5B9283"/>
<path transform="translate(312,738)" d="m0 0 2 4 1 8 1 1h8v2l-8 1-3-2v-5h-2l-1 3-1-2 2-9z" fill="#5E9586"/>
<path transform="translate(534,739)" d="m0 0 1 4 3-1h17v1l-10 1-3 1h-7l-2 4-1-4z" fill="#5B9383"/>
<path transform="translate(163,730)" d="m0 0h3v7l-2 4-2-4 1-1-11-2v-2h9v2h3z" fill="#699E91"/>
<path transform="translate(142,732)" d="m0 0 22 3v1l-22 1-1-3z" fill="#154B37"/>
<path transform="translate(535,739)" d="m0 0h12l1 1 8 1v1l-21 1z" fill="#154B37"/>
<path transform="translate(352,713)" d="m0 0h24v1l-9 2v-2l-6 1v1h-11l-1-2z" fill="#548D7D"/>
<path transform="translate(536,732)" d="m0 0 21 3v1l-21 1z" fill="#154B37"/>
<path transform="translate(642,716)" d="m0 0h10l10 2v1l-19 1z" fill="#154B37"/>
<path transform="translate(436,739)" d="m0 0h11l10 2-1 2-20-1z" fill="#1A503C"/>
<path transform="translate(395,730)" d="m0 0h10l2 5h-7l-4-1-3 3 1-5z" fill="#659A8C"/>
<path transform="translate(846,730)" d="m0 0h19l-1 2-1 1-3 1-2-1h-11l-3-2z" fill="#6FA295"/>
<path transform="translate(823,748)" d="m0 0h3v2l8 2h7l6-1v2l-2 1h-14l-8-3-4-1z" fill="#679C8E"/>
<path transform="translate(535,735)" d="m0 0 1 2 2-1h17v1l-8 1v1l-14 1z" fill="#558E7E"/>
<path transform="translate(443,729)" d="m0 0 14 1-4 2 2 1v2l-10-1-2-1z" fill="#63998B"/>
<path transform="translate(141,726)" d="m0 0 1 4h19v1l-9 2h-8l-3-1z" fill="#5B9383"/>
<path transform="translate(227,728)" d="m0 0 4 3 7 1 3 3h-8l-9-1 1-5z" fill="#669B8D"/>
<path transform="translate(342,742)" d="m0 0h15v1l-7 1 4 2h-8l-3-1-1 4-1-2z" fill="#62988A"/>
<path transform="translate(168,714)" d="m0 0h1v6l-2 1h-11v1h-10l-1-2 6-1h17z" fill="#649A8C"/>
<path transform="translate(240,744)" d="m0 0 2 1-1 5-9-1 1-2-5-1v-1z" fill="#4B8675"/>
<path transform="translate(392,739)" d="m0 0 1 3h14v1l-10 1v1l-7 2-2 1 2-4zm-5 9m-2 1h2v2h-2z" fill="#62998A"/>
<path transform="translate(538,726)" d="m0 0 5 1 3 1 13 1v1h-23z" fill="#154B37"/>
<path transform="translate(752,746)" d="m0 0 10 3-2 3-10-1v-3z" fill="#5A9283"/>
<path transform="translate(823,735)" d="m0 0 1 3v6l-3 1v-2l-6-2-2-1v-2h9z" fill="#679D8F"/>
<path transform="translate(519,728)" d="m0 0h3v2h-3zm-20 2h20v1l-10 1v1h-9l-2-2z" fill="#4A8573"/>
<path transform="translate(142,726)" d="m0 0h5l4 2 12 1v1h-21z" fill="#154B37"/>
<path transform="translate(592,733)" d="m0 0h8l12 2-1 2-19-1z" fill="#154B37"/>
<path transform="translate(104,730)" d="m0 0h21v1h-11v2h-8l-3-2z" fill="#568F7F"/>
<path transform="translate(393,716)" d="m0 0h9l11 2-1 2-17-1z" fill="#154B37"/>
<path transform="translate(672,740)" d="m0 0h3l-3 11-2 2h-12l-1-2h11l2-1z" fill="#5B9383"/>
<path transform="translate(105,742)" d="m0 0h11l-2 2 4 2h-8l-7-1v-2z" fill="#568F7F"/>
<path transform="translate(105,736)" d="m0 0h19v1l-10 1v1h-11l-1-2z" fill="#518B7B"/>
<path transform="translate(757,716)" d="m0 0h9l9 2v1h-17z" fill="#154B37"/>
<path transform="translate(298,731)" d="m0 0 4 2-1 2h-12l-2-1v-2h8l3 2z" fill="#71A497"/>
<path transform="translate(594,726)" d="m0 0 4 1 16 2-1 2-20-1z" fill="#154B37"/>
<path transform="translate(425,724)" d="m0 0h5v6l-5 1-1-1v-5z" fill="#306855"/>
<path transform="translate(437,742)" d="m0 0h18v1l-10 1v2l-6-1-1 3z" fill="#5B9384"/>
<path transform="translate(593,739)" d="m0 0h7l10 2v1h-19z" fill="#154B37"/>
<path transform="translate(178,739)" d="m0 0h8l8 2v1l-16 1z" fill="#154B37"/>
<path transform="translate(721,730)" d="m0 0 3 1-1 12-1-4-3-1 1-3-6-2 4-1h2z" fill="#81B0A6"/>
<path transform="translate(443,716)" d="m0 0h7l11 2-1 2-16-1z" fill="#154B37"/>
<path transform="translate(785,739)" d="m0 0 3 1v3l-2 1-1 7-2 2h-10v-1l10-1 1-10z" fill="#5C9484"/>
<path transform="translate(278,730)" d="m0 0h17v1h-8v2h-9z" fill="#599282"/>
<path transform="translate(848,745)" d="m0 0h2v3h6v2l-4 2h-5z" fill="#649A8C"/>
<path transform="translate(757,718)" d="m0 0 16 1v1l-9 1 5 1v1h-11z" fill="#5C9485"/>
<path transform="translate(456,737)" d="m0 0 3 1-1 6-1-3h-8l-2-1v-2h8z" fill="#70A396"/>
<path transform="translate(642,733)" d="m0 0 18 2-1 2-17-1z" fill="#154B37"/>
<path transform="translate(221,745)" d="m0 0 14 1-3 2h-11z" fill="#154B37"/>
<path transform="translate(772,737)" d="m0 0h2l-1 3zm-16 1h10l6 1-1 2h-7l-8-2z" fill="#689D90"/>
<path transform="translate(179,733)" d="m0 0 18 2v1h-19z" fill="#154B37"/>
<path transform="translate(602,719)" d="m0 0h15v1l-10 1v1h-9l-1-2z" fill="#5A9283"/>
<path transform="translate(816,713)" d="m0 0h15v1l-6 1v1h-10l-1-2z" fill="#558E7E"/>
<path transform="translate(621,713)" d="m0 0h19v1l-17 1-4 6-2-1z" fill="#558E7E"/>
<path transform="translate(329,713)" d="m0 0h17l1 4-2 2-1-4-14-1-1 4h-2z" fill="#528C7C"/>
<path transform="translate(408,737)" d="m0 0 3 1v2l-10 1-8-2v-1h14z" fill="#72A598"/>
<path transform="translate(127,736)" d="m0 0 1 2-2 2-9 2-3-4h10z" fill="#6FA396"/>
<path transform="translate(342,739)" d="m0 0 9 1 7 1v1h-16z" fill="#1A503D"/>
<path transform="translate(140,739)" d="m0 0h13l2 1 9 1v1h-13l-1-1-10-1z" fill="#154B37"/>
<path transform="translate(226,733)" d="m0 0 17 2v1h-19z" fill="#154B37"/>
<path transform="translate(327,718)" d="m0 0 1 3-5 11h-1l-1-10 4 3 1-5z" fill="#6DA194"/>
<path transform="translate(345,719)" d="m0 0h16v1l-7 1v1h-9z" fill="#5E9587"/>
<path transform="translate(393,739)" d="m0 0h6l10 2v1h-16z" fill="#154B37"/>
<path transform="translate(223,739)" d="m0 0h8l3 3h-12z" fill="#154B37"/>
<path transform="translate(661,727)" d="m0 0h1v6l-2-1-18-1v-1h17v-2z" fill="#4D8877"/>
<path transform="translate(810,719)" d="m0 0h16v1l-8 1v1h-8z" fill="#5C9484"/>
<path transform="translate(499,719)" d="m0 0h14v1l-9 1v1h-9v-2z" fill="#5C9484"/>
<path transform="translate(854,715)" d="m0 0 4 1 11 2v1h-15z" fill="#1A513D"/>
<path transform="translate(546,715)" d="m0 0 4 1 11 2v1h-15z" fill="#245947"/>
<path transform="translate(504,731)" d="m0 0h7l6 2 2 2h-7l-3-1v-2h-5z" fill="#6FA396"/>
<path transform="translate(231,716)" d="m0 0 1 3h12v1l-10 1-4 1v-5zm-2 6v3z" fill="#669B8D"/>
<path transform="translate(590,745)" d="m0 0 12 1-2 2h-10z" fill="#154B37"/>
<path transform="translate(849,739)" d="m0 0h6l1 1 9 1v1h-15z" fill="#154B37"/>
<path transform="translate(195,738)" d="m0 0h3v5h-5l-3-2v-2z" fill="#4C8675"/>
<path transform="translate(597,732)" d="m0 0h11l3 3h-8l-6-2z" fill="#609788"/>
<path transform="translate(808,739)" d="m0 0 7 1 6 1v1h-14z" fill="#154B37"/>
<path transform="translate(231,739)" d="m0 0h7l3 3-2 1h-7l1-2z" fill="#407A68"/>
<path transform="translate(239,749)" d="m0 0h3l1 2 14 1v1h-16l-3-2z" fill="#5E9586"/>
<path transform="translate(757,739)" d="m0 0 14 2v1h-15z" fill="#154B37"/>
<path transform="translate(610,736)" d="m0 0 2 1-1 5-11-2v-1h10z" fill="#508A7A"/>
<path transform="translate(482,734)" d="m0 0 1 4-1 1h-11l1-2 9-1z" fill="#548D7D"/>
<path transform="translate(443,733)" d="m0 0 15 2v1h-17z" fill="#154B37"/>
<path transform="translate(773,726)" d="m0 0 3 1-2 7h-3l-1-4h2z" fill="#6CA093"/>
<path transform="translate(662,715)" d="m0 0h3l-1 9-2-4-2-1v-3z" fill="#77A99D"/>
<path transform="translate(628,728)" d="m0 0h1v8h-4l1-4z" fill="#538A7A"/>
</svg>
